<svg xmlns="http://www.w3.org/2000/svg" aria-hidden="true" style="position:absolute;width:0;height:0;overflow:hidden"><defs><symbol id="warning-svgrepo-com" viewBox="0 0 32 32"><path d="M17.416 5.906c-.588-1.176-2.264-1.176-2.852 0L5.187 24.667a1.595 1.595 0 0 0 1.426 2.308h18.754a1.595 1.595 0 0 0 1.426-2.308L17.416 5.906zm-4.96-1.054c1.456-2.913 5.612-2.913 7.068 0l9.377 18.761c1.314 2.628-.597 5.72-3.534 5.72H6.613c-2.937 0-4.848-3.092-3.534-5.72l9.377-18.761z"/></symbol><symbol id="close-svgrepo-com" viewBox="0 0 32 32"><path d="M27.661 4.438a1.333 1.333 0 0 0-1.886 0l-9.726 9.726-9.726-9.726a1.333 1.333 0 1 0-1.886 1.886l9.726 9.726-9.726 9.726a1.333 1.333 0 1 0 1.886 1.886l9.726-9.726 9.726 9.726a1.333 1.333 0 1 0 1.886-1.886l-9.726-9.726 9.726-9.726a1.333 1.333 0 0 0 0-1.886z"/></symbol><symbol id="danger-svgrepo-com" viewBox="0 0 32 32"><path d="M29.739 31.317c-.16.414-.559.686-1.003.683a1.077 1.077 0 0 1-.384 0L16 26.795 3.627 32a1.068 1.068 0 0 1-1.382-.605l-.005-.013a1.068 1.068 0 0 1 .619-1.515L13.206 25.6 2.859 21.333a1.066 1.066 0 1 1 .621-2.041c.051.015.1.035.148.057l12.373 5.141 12.373-5.141a1.067 1.067 0 1 1 .767 1.984L18.773 25.6l10.347 4.267a1.067 1.067 0 0 1 .619 1.45zM25.6 9.024v.96a2.13 2.13 0 0 1-.427 1.259 37.924 37.924 0 0 1-3.84 3.691v2.475c.003.444-.269.843-.683 1.003l-4.608 1.856h-.149l-4.629-1.856a1.065 1.065 0 0 1-.597-1.003v-2.475a37.515 37.515 0 0 1-3.883-3.691A2.13 2.13 0 0 1 6.4 9.984v-.96A9.814 9.814 0 0 1 15.168 0h1.6A9.792 9.792 0 0 1 25.6 9.024zm-12.8-.491a2.133 2.133 0 1 0-4.266 0 2.133 2.133 0 0 0 4.266 0zm2.133 6.4a1.067 1.067 0 0 0-2.134 0V16a1.067 1.067 0 0 0 2.134 0v-1.067zm4.267 0a1.067 1.067 0 0 0-2.134 0V16a1.067 1.067 0 0 0 2.134 0v-1.067zm4.267-6.4a2.133 2.133 0 1 0-4.266 0 2.133 2.133 0 0 0 4.266 0z"/></symbol><symbol id="diamond-svgrepo-com" viewBox="0 0 32 32"><path d="M24 5.333 29.333 12 16 30 2.667 12 8 5.333h16zM19.077 13h-6.154L16 25l3.077-12zm-8.429 0H6.7l7.485 11.237L10.647 13zm14.65 0h-3.946l-3.535 11.23L25.299 13zM13.222 8H9.28l-2.401 3h4.176l2.167-3zm3.445 0h-1.333l-2 3h5.333l-2-3zm6.052 0h-3.941l2.167 3h4.175l-2.401-3z"/></symbol><symbol id="info-svgrepo-com" viewBox="0 0 32 32"><path d="M16 0c8.837 0 16 7.163 16 16s-7.163 16-16 16S0 24.837 0 16 7.163 0 16 0zm0 1.684C8.094 1.684 1.684 8.093 1.684 16S8.093 30.316 16 30.316 30.316 23.907 30.316 16 23.907 1.684 16 1.684zm-.701 10.447c-1.418.661-2.624 1.8-3.831 3.465-.172.237-.179.382-.002.509.124.09.197.061.378-.132l.049-.053c.157-.169.283-.313.552-.626.89-1.033 1.325-1.459 2-1.848.585-.337 1.098.158 1.001.791-.027.178-.075.309-.197.591-.048.112-.069.161-.092.22-.22.577-.404 1.059-.792 2.064l-.019.048-.234.608a260.114 260.114 0 0 0-1.133 2.983l-.019.05c.332-1.013.274-.862.217-.71l-.387 1.168c-.364.987-.572 1.629-.731 2.311l-.05.214a7.24 7.24 0 0 0-.164.89c-.046.442-.009.804.13 1.108.157.344.495.59.88.646.642.093 1.261.087 1.792-.034.299-.068.594-.157.884-.266.839-.316 1.648-.808 2.431-1.459.685-.571 1.333-1.267 2.013-2.131l.118-.15c.205-.262.306-.432.343-.611.041-.195-.124-.393-.256-.326-.065.033-.133.1-.237.231a4.541 4.541 0 0 1-.155.192 25.58 25.58 0 0 1-.516.567c-.304.325-.613.643-1.061 1.096a3.075 3.075 0 0 1-.824.584c-.494.243-.939-.063-.886-.611.035-.361.123-.735.254-1.096.286-.789.52-1.428 1.037-2.834l.442-1.203c.359-.978.645-1.764.917-2.524.337-.938.527-1.637.615-2.359.066-.545-.085-1.065-.431-1.423-.383-.397-.928-.58-1.607-.572-.751.009-1.627.254-2.433.63zm5.139-6.474c-1.349-.525-2.969.377-3.24 1.806-.197 1.035.19 1.929.98 2.304 1.565.742 3.443-.447 3.443-2.18 0-.964-.412-1.629-1.183-1.929z"/></symbol><symbol id="success-svgrepo-com" viewBox="0 0 32 32"><path d="M16 2.667C8.636 2.667 2.667 8.637 2.667 16S8.637 29.333 16 29.333c7.364 0 13.333-5.97 13.333-13.333S23.363 2.667 16 2.667zm0 24c-5.882 0-10.667-4.785-10.667-10.667S10.118 5.333 16 5.333 26.667 10.118 26.667 16 21.882 26.667 16 26.667zm5.021-15.431 1.885 1.885-8.24 8.274-4.943-4.943 1.885-1.885 3.057 3.057 6.354-6.389z"/></symbol></defs></svg>